<svg xmlns="http://www.w3.org/2000/svg" viewBox="0 0 479.91 150"><defs><style>.cls-1{fill:#272f32;}.cls-2{fill:#9dbdc6;}.cls-3,.cls-4{fill:#daebf0;}.cls-4,.cls-8{font-size:60px;font-family:Lato-Bold, Lato;font-weight:700;}.cls-5{letter-spacing:-0.01em;}.cls-6{letter-spacing:0em;}.cls-7{letter-spacing:-0.01em;}.cls-8{fill:#fff;}</style></defs><g id="Calque_2" data-name="Calque 2"><g id="Calque_1-2" data-name="Calque 1"><line class="cls-1" x1="355.71" x2="479.91"/><polyline class="cls-1" points="478.15 150 0 150 0 0 479 0"/><rect class="cls-2" x="52" y="39" width="74" height="74"/><rect class="cls-2" x="51.8" y="38.8" width="74" height="74"/><rect class="cls-2" x="51.6" y="38.6" width="74" height="74"/><rect class="cls-2" x="51.4" y="38.4" width="74" height="74"/><rect class="cls-2" x="51.2" y="38.2" width="74" height="74"/><rect class="cls-2" x="51" y="38" width="74" height="74"/><rect class="cls-2" x="50.8" y="37.8" width="74" height="74"/><rect class="cls-2" x="50.6" y="37.6" width="74" height="74"/><rect class="cls-2" x="50.4" y="37.4" width="74" height="74"/><rect class="cls-2" x="50.2" y="37.2" width="74" height="74"/><rect class="cls-2" x="50" y="37" width="74" height="74"/><rect class="cls-2" x="49.8" y="36.8" width="74" height="74"/><rect class="cls-2" x="49.6" y="36.6" width="74" height="74"/><rect class="cls-2" x="49.4" y="36.4" width="74" height="74"/><rect class="cls-2" x="49.2" y="36.2" width="74" height="74"/><rect class="cls-2" x="49" y="36" width="74" height="74"/><rect class="cls-2" x="48.8" y="35.8" width="74" height="74"/><rect class="cls-2" x="48.6" y="35.6" width="74" height="74"/><rect class="cls-2" x="48.4" y="35.4" width="74" height="74"/><rect class="cls-2" x="48.2" y="35.2" width="74" height="74"/><rect class="cls-2" x="48" y="35" width="74" height="74"/><rect class="cls-2" x="47.8" y="34.8" width="74" height="74"/><rect class="cls-2" x="47.6" y="34.6" width="74" height="74"/><rect class="cls-2" x="47.4" y="34.4" width="74" height="74"/><rect class="cls-2" x="47.2" y="34.2" width="74" height="74"/><rect class="cls-2" x="47" y="34" width="74" height="74"/><rect class="cls-2" x="46.8" y="33.8" width="74" height="74"/><rect class="cls-2" x="46.6" y="33.6" width="74" height="74"/><rect class="cls-2" x="46.4" y="33.4" width="74" height="74"/><rect class="cls-2" x="46.2" y="33.2" width="74" height="74"/><rect class="cls-2" x="46" y="33" width="74" height="74"/><rect class="cls-3" x="46" y="33" width="74" height="74"/><text class="cls-4" transform="translate(140.86 97.29)">J<tspan class="cls-5" x="25.77" y="0">Q</tspan><tspan class="cls-6" x="73.86" y="0">uer</tspan><tspan class="cls-7" x="162.12" y="0">y</tspan><tspan x="193.2" y="0">LAB</tspan></text><text class="cls-8" transform="translate(140.86 97.29)">J<tspan class="cls-5" x="25.77" y="0">Q</tspan><tspan class="cls-6" x="73.86" y="0">uer</tspan><tspan class="cls-7" x="162.12" y="0">y</tspan><tspan x="193.2" y="0">LAB</tspan></text><text class="cls-4" transform="translate(140.86 97.29)">J<tspan class="cls-5" x="25.77" y="0">Q</tspan><tspan class="cls-6" x="73.86" y="0">uer</tspan><tspan class="cls-7" x="162.12" y="0">y</tspan><tspan x="193.2" y="0">LAB</tspan></text></g></g></svg>